<?xml version="1.0" encoding="utf-8"?>
<!-- Generator: Adobe Illustrator 27.5.0, SVG Export Plug-In . SVG Version: 6.00 Build 0)  -->
<svg version="1.1" xmlns="http://www.w3.org/2000/svg" xmlns:xlink="http://www.w3.org/1999/xlink" x="0px" y="0px"
	 viewBox="0 0 2200 2200" style="enable-background:new 0 0 2200 2200;" xml:space="preserve">
<g id="background">
	<rect style="fill:#FFFFFF;" width="2200" height="2200"/>
</g>
<g id="Objects">
	<g>
		<g>
			<path style="fill:#683530;" d="M1557.537,1462.947c-487.023,487.023-1024.704,298.828-1136.483,251.846
				c-13.736-5.773-24.663-16.7-30.436-30.436c-46.982-111.789-235.177-649.46,251.846-1136.483s1024.704-298.828,1136.483-251.846
				c13.736,5.773,24.663,16.7,30.436,30.436C1856.364,438.243,2044.56,975.924,1557.537,1462.947z"/>
			<path style="fill:#FFEBE3;" d="M1133.294,1735.989c-93.733,32.359-184.078,47.717-267.419,52.318
				c-93.981-68.304-188.299-147.096-296.068-252.587c-100.182-98.078-181.054-190.942-253.237-285.545
				c3.695-82.903,17.936-173.006,48.988-266.659c96.172,140.969,200.633,271.852,345.443,413.609
				C866.657,1549.494,994.246,1646.148,1133.294,1735.989z"/>
			<path style="fill:#FFEBE3;" d="M1630.31,475.218c105.491,107.769,184.282,202.087,252.587,296.068
				c-4.601,83.341-19.959,173.686-52.318,267.419c-89.841-139.048-186.495-266.637-338.864-422.292
				c-141.757-144.81-272.64-249.271-413.609-345.443c93.653-31.052,183.756-45.293,266.659-48.988
				C1439.367,294.163,1532.231,375.036,1630.31,475.218z"/>
			<path style="fill:#492625;" d="M569.807,1535.72c2.476,2.417,4.937,4.82,7.391,7.215l-166.302,166.302
				c-5.733-3.922-10.691-8.866-14.628-14.584l166.171-166.171C564.877,1530.893,567.339,1533.311,569.807,1535.72z"/>
			<path style="fill:#492625;" d="M702.326,1388.596l780.859-780.859c2.841,2.87,5.682,5.769,8.53,8.676
				c1.986,2.03,3.965,4.053,5.93,6.076l-780.567,780.567c-2.023-1.964-4.046-3.944-6.076-5.93
				C708.095,1394.277,705.196,1391.436,702.326,1388.596z"/>
			<path style="fill:#492625;" d="M1803.828,316.306l-166.302,166.302c-2.395-2.454-4.798-4.915-7.215-7.391
				c-2.41-2.468-4.827-4.929-7.237-7.369l166.171-166.171C1794.962,305.614,1799.906,310.573,1803.828,316.306z"/>
			<path style="fill:#EAC9BE;" d="M717.078,1403.055l-139.88,139.88c-2.454-2.395-4.915-4.798-7.391-7.215
				c-2.468-2.41-4.93-4.827-7.369-7.237l139.888-139.888c2.87,2.841,5.769,5.682,8.676,8.53
				C713.032,1399.112,715.055,1401.091,717.078,1403.055z"/>
			<path style="fill:#EAC9BE;" d="M1623.073,467.849c2.41,2.439,4.827,4.9,7.237,7.369c2.417,2.476,4.82,4.937,7.215,7.391
				l-139.88,139.88c-1.964-2.023-3.943-4.046-5.93-6.076c-2.848-2.907-5.689-5.806-8.53-8.676L1623.073,467.849z"/>
			<path style="fill:#FFFFFF;" d="M1421.415,735.088l-591.738,591.738c-14.109,14.109-36.984,14.109-51.093,0v0
				c-14.109-14.109-14.109-36.984,0-51.093l591.738-591.738c14.109-14.109,36.984-14.109,51.093,0v0
				C1435.524,698.104,1435.524,720.979,1421.415,735.088z"/>
			<path style="fill:#FFFFFF;" d="M925.283,1331.55L925.283,1331.55c-11.436,11.436-29.978,11.436-41.414,0l-110.007-110.007
				c-11.436-11.436-11.436-29.978,0-41.414h0c11.436-11.436,29.978-11.436,41.414,0l110.007,110.007
				C936.719,1301.572,936.719,1320.113,925.283,1331.55z"/>
			<path style="fill:#FFFFFF;" d="M1008.759,1248.074L1008.759,1248.074c-11.436,11.436-29.978,11.436-41.414,0l-110.007-110.007
				c-11.436-11.436-11.436-29.978,0-41.414h0c11.436-11.436,29.978-11.436,41.414,0l110.007,110.007
				C1020.195,1218.095,1020.195,1236.637,1008.759,1248.074z"/>
			<path style="fill:#FFFFFF;" d="M1092.235,1164.598L1092.235,1164.598c-11.436,11.436-29.978,11.436-41.414,0L940.813,1054.59
				c-11.436-11.436-11.436-29.978,0-41.414l0,0c11.436-11.436,29.978-11.436,41.414,0l110.007,110.007
				C1103.671,1134.619,1103.671,1153.161,1092.235,1164.598z"/>
			<path style="fill:#FFFFFF;" d="M1175.711,1081.121L1175.711,1081.121c-11.436,11.436-29.978,11.436-41.414,0l-110.007-110.007
				c-11.436-11.436-11.436-29.978,0-41.414h0c11.436-11.436,29.978-11.436,41.414,0l110.007,110.007
				C1187.147,1051.143,1187.147,1069.685,1175.711,1081.121z"/>
			<path style="fill:#FFFFFF;" d="M1259.187,997.645L1259.187,997.645c-11.436,11.436-29.978,11.436-41.414,0l-110.007-110.007
				c-11.436-11.436-11.436-29.978,0-41.414h0c11.436-11.436,29.978-11.436,41.414,0l110.007,110.007
				C1270.623,967.667,1270.623,986.209,1259.187,997.645z"/>
			<path style="fill:#FFFFFF;" d="M1342.663,914.169L1342.663,914.169c-11.436,11.436-29.978,11.436-41.414,0l-110.007-110.007
				c-11.436-11.436-11.436-29.978,0-41.414l0,0c11.436-11.436,29.978-11.436,41.414,0l110.007,110.007
				C1354.099,884.191,1354.099,902.733,1342.663,914.169z"/>
			<path style="fill:#FFFFFF;" d="M1426.139,830.693L1426.139,830.693c-11.436,11.436-29.978,11.436-41.414,0l-110.007-110.007
				c-11.436-11.436-11.436-29.978,0-41.414v0c11.436-11.436,29.978-11.436,41.415,0l110.007,110.007
				C1437.575,800.715,1437.575,819.257,1426.139,830.693z"/>
		</g>
		<ellipse style="fill:#DDDDDD;" cx="1100" cy="1948.368" rx="805.383" ry="30.667"/>
	</g>
</g>
</svg>
